<?xml version="1.0" encoding="UTF-8"?>
<svg width="24px" height="21px" viewBox="0 0 24 21" version="1.1" xmlns="http://www.w3.org/2000/svg" xmlns:xlink="http://www.w3.org/1999/xlink">
    <!-- Generator: Sketch 58 (84663) - https://sketch.com -->
    <title>twitter</title>
    <desc>Created with Sketch.</desc>
    <g id="Page-1" stroke="none" strokeWidth="1" fill="none" fillRule="evenodd">
        <g id="twitter" transform="translate(0.000000, 0.666667)" fill="#FFFFFF" fillRule="nonzero">
            <path d="M21.534,4.878625 C22.51,4.185625 23.331,3.320625 24,2.324625 L24,2.323625 C23.107,2.714625 22.157,2.974625 21.165,3.100625 C22.185,2.491625 22.964,1.534625 23.33,0.381625 C22.379,0.948625 21.329,1.348625 20.21,1.572625 C19.307,0.610625 18.02,0.015625 16.616,0.015625 C13.892,0.015625 11.699,2.226625 11.699,4.936625 C11.699,5.326625 11.732,5.701625 11.813,6.058625 C7.723,5.858625 4.103,3.898625 1.671,0.911625 C1.247,1.648625 0.997,2.491625 0.997,3.398625 C0.997,5.102625 1.874,6.612625 3.183,7.487625 C2.392,7.472625 1.617,7.242625 0.96,6.881625 L0.96,6.935625 C0.96,9.326625 2.665,11.312625 4.902,11.770625 C4.501,11.880625 4.065,11.932625 3.612,11.932625 C3.297,11.932625 2.979,11.914625 2.681,11.848625 C3.318,13.796625 5.128,15.229625 7.278,15.276625 C5.604,16.585625 3.478,17.374625 1.177,17.374625 C0.774,17.374625 0.387,17.356625 -1.77635684e-15,17.307625 C2.18,18.712625 4.762,19.515625 7.548,19.515625 C16.231,19.515625 21.89,12.271625 21.534,4.878625 Z" id="Path"></path>
        </g>
    </g>
</svg>