<?xml version="1.0" encoding="UTF-8"?>
<svg width="80px" height="89px" viewBox="0 0 80 89" version="1.1" xmlns="http://www.w3.org/2000/svg" xmlns:xlink="http://www.w3.org/1999/xlink">
    <!-- Generator: Sketch 58 (84663) - https://sketch.com -->
    <title>icon-vector-sky</title>
    <desc>Created with Sketch.</desc>
    <g id="Page-1" stroke="none" strokeWidth="1" fill="none" fillRule="evenodd">
        <g id="icon-vector-sky" fillRule="nonzero">
            <path d="M0,23.1075393 L0,65.1640838 C0,67.5439791 1.34450262,69.7190576 3.47267016,70.7833508 L37.1187435,87.6084817 C38.0033508,88.0507853 38.9658639,88.2719372 39.9287958,88.2719372 C40.8917277,88.2719372 41.8542408,88.0507853 42.7388482,87.6084817 L76.3849215,70.7833508 C78.513089,69.7190576 79.8575916,67.5439791 79.8575916,65.1640838 L79.8575916,23.1075393 L0,23.1075393 Z" id="Path" fill="#99F3FB"></path>
            <path d="M39.9287958,23.1075393 L39.9287958,88.2719372 C40.8917277,88.2719372 41.8542408,88.0507853 42.7388482,87.6084817 L76.3849215,70.7833508 C78.513089,69.7190576 79.8575916,67.5439791 79.8575916,65.1640838 L79.8575916,23.1075393 L39.9287958,23.1075393 Z" id="Path" fill="#78E3F5"></path>
            <path d="M76.3849215,17.4882723 L42.7388482,0.663141361 C40.9696335,-0.22104712 38.8879581,-0.22104712 37.1187435,0.663141361 L3.47267016,17.4882723 C1.34408377,18.5525654 1.42108547e-14,20.7284817 1.42108547e-14,23.1079581 C1.42108547e-14,25.4874346 1.34450262,27.6629319 3.47308901,28.7272251 L37.1191623,45.5481675 C38.0033508,45.9904712 38.9658639,46.2112042 39.9287958,46.2112042 C40.8917277,46.2112042 41.853822,45.9904712 42.7384293,45.5481675 L76.3845026,28.7272251 C78.513089,27.6629319 79.8575916,25.4878534 79.8575916,23.1079581 C79.8575916,20.7280628 78.5135079,18.5525654 76.3849215,17.4882723 Z" id="Path" fill="#CBFCFF"></path>
            <path d="M76.3849215,17.4882723 L42.7388482,0.663141361 C41.853822,0.220837696 40.8917277,0.00764397906 39.9287958,0.0105460895 L39.9287958,46.2112042 C40.8913089,46.2112042 41.853822,45.9904712 42.7384293,45.5481675 L76.3845026,28.7272251 C78.513089,27.6629319 79.8575916,25.4878534 79.8575916,23.1079581 C79.8575916,20.7280628 78.5135079,18.5525654 76.3849215,17.4882723 Z" id="Path" fill="#99F3FB"></path>
        </g>
    </g>
</svg>