<?xml version="1.0" encoding="UTF-8"?>
<svg width="80px" height="89px" viewBox="0 0 80 89" version="1.1" xmlns="http://www.w3.org/2000/svg" xmlns:xlink="http://www.w3.org/1999/xlink">
    <!-- Generator: Sketch 58 (84663) - https://sketch.com -->
    <title>icon-vector</title>
    <desc>Created with Sketch.</desc>
    <g id="Page-1" stroke="none" strokeWidth="1" fill="none" fillRule="evenodd">
        <g id="icon-vector" fillRule="nonzero">
            <path d="M9.78333511e-08,23.1075393 L9.78333511e-08,65.1640838 C9.78333511e-08,67.5439791 1.34450272,69.7190576 3.47267025,70.7833508 L37.1187436,87.6084817 C38.0033509,88.0507853 38.965864,88.2719372 39.9287959,88.2719372 C40.8917278,88.2719372 41.8542409,88.0507853 42.7388483,87.6084817 L76.3849216,70.7833508 C78.5130891,69.7190576 79.8575917,67.5439791 79.8575917,65.1640838 L79.8575917,23.1075393 L9.78333511e-08,23.1075393 Z" id="Path" fill="#00CB75"></path>
            <path d="M39.9287959,23.1075393 L39.9287959,88.2719372 C40.8917278,88.2719372 41.8542409,88.0507853 42.7388483,87.6084817 L76.3849216,70.7833508 C78.5130891,69.7190576 79.8575917,67.5439791 79.8575917,65.1640838 L79.8575917,23.1075393 L39.9287959,23.1075393 Z" id="Path" fill="#00A78E"></path>
            <path d="M76.3849216,17.4882723 L42.7388483,0.663141361 C40.9696336,-0.22104712 38.8879582,-0.22104712 37.1187436,0.663141361 L3.47267025,17.4882723 C1.34408387,18.5525654 1.42108547e-14,20.7280628 1.42108547e-14,23.1079581 C1.42108547e-14,25.4878534 1.34450272,27.6629319 3.4730891,28.7272251 L37.1191624,45.5481675 C38.0033509,45.9904712 38.965864,46.2112042 39.9287959,46.2112042 C40.891309,46.2112042 41.8538221,45.9904712 42.7384294,45.5481675 L76.3845027,28.7272251 C78.5130891,27.6629319 79.8575917,25.4878534 79.8575917,23.1079581 C79.8575917,20.7280628 78.5130891,18.5525654 76.3849216,17.4882723 Z" id="Path" fill="#8EE26B"></path>
            <path d="M76.3849216,17.4882723 L42.7388483,0.663141361 C41.8538221,0.220837696 40.8917278,0.00764397906 39.9287959,0.0105460895 L39.9287959,46.2112042 C40.891309,46.2112042 41.8538221,45.9904712 42.7384294,45.5481675 L76.3845027,28.7272251 C78.5130891,27.6629319 79.8575917,25.4878534 79.8575917,23.1079581 C79.8575917,20.7280628 78.5130891,18.5525654 76.3849216,17.4882723 Z" id="Path" fill="#00CB75"></path>
        </g>
    </g>
</svg>