<?xml version="1.0" encoding="UTF-8"?>
<svg width="512px" height="512px" viewBox="0 0 512 512" version="1.1" xmlns="http://www.w3.org/2000/svg" xmlns:xlink="http://www.w3.org/1999/xlink">
    <!-- Generator: Sketch 58 (84663) - https://sketch.com -->
    <title>instagram</title>
    <desc>Created with Sketch.</desc>
    <g id="Page-1" stroke="none" strokeWidth="1" fill="none" fillRule="evenodd">
        <g id="instagram" fill="#FFFFFF" fillRule="nonzero">
            <path d="M261.039062,512 C259.34375,512 257.648438,512 255.941406,511.992188 C215.808594,512.089844 178.726562,511.070312 142.664062,508.875 C109.601562,506.863281 79.421875,495.4375 55.382812,475.835938 C32.1875,456.921875 16.347656,431.347656 8.304688,399.832031 C1.304688,372.394531 0.933594,345.460938 0.578125,319.410156 C0.320312,300.71875 0.0546875,278.570312 -8.8817842e-16,256.046875 C0.0546875,233.429688 0.320312,211.28125 0.578125,192.589844 C0.933594,166.542969 1.304688,139.609375 8.304688,112.167969 C16.347656,80.652344 32.1875,55.078125 55.382812,36.164062 C79.421875,16.5625 109.601562,5.136719 142.667969,3.125 C178.730469,0.933594 215.820312,-0.0898438 256.039062,0.0078125 C296.183594,-0.078125 333.253906,0.933594 369.316406,3.125 C402.378906,5.136719 432.558594,16.5625 456.597656,36.164062 C479.796875,55.078125 495.632812,80.652344 503.675781,112.167969 C510.675781,139.605469 511.046875,166.542969 511.402344,192.589844 C511.660156,211.28125 511.929688,233.429688 511.980469,255.953125 L511.980469,256.046875 C511.929688,278.570312 511.660156,300.71875 511.402344,319.410156 C511.046875,345.457031 510.679688,372.390625 503.675781,399.832031 C495.632812,431.347656 479.796875,456.921875 456.597656,475.835938 C432.558594,495.4375 402.378906,506.863281 369.316406,508.875 C334.78125,510.976562 299.304688,512 261.039062,512 Z M255.941406,471.992188 C295.421875,472.085938 331.671875,471.089844 366.886719,468.949219 C391.886719,467.429688 413.5625,459.316406 431.320312,444.835938 C447.734375,431.449219 459.039062,412.980469 464.917969,389.941406 C470.746094,367.101562 471.082031,342.578125 471.40625,318.863281 C471.660156,300.296875 471.925781,278.304688 471.980469,256 C471.925781,233.691406 471.660156,211.703125 471.40625,193.136719 C471.082031,169.421875 470.746094,144.898438 464.917969,122.054688 C459.039062,99.015625 447.734375,80.546875 431.320312,67.160156 C413.5625,52.683594 391.886719,44.570312 366.886719,43.050781 C331.671875,40.90625 295.421875,39.917969 256.035156,40.003906 C216.5625,39.910156 180.308594,40.90625 145.09375,43.050781 C120.09375,44.570312 98.417969,52.683594 80.660156,67.160156 C64.246094,80.546875 52.941406,99.015625 47.0625,122.054688 C41.234375,144.898438 40.898438,169.417969 40.574219,193.136719 C40.320312,211.71875 40.054688,233.722656 40,256.046875 C40.054688,278.273438 40.320312,300.28125 40.574219,318.863281 C40.898438,342.578125 41.234375,367.101562 47.0625,389.941406 C52.941406,412.980469 64.246094,431.449219 80.660156,444.835938 C98.417969,459.3125 120.09375,467.425781 145.09375,468.945312 C180.308594,471.089844 216.570312,472.089844 255.941406,471.992188 Z M254.988281,381 C186.066406,381 129.988281,324.925781 129.988281,256 C129.988281,187.074219 186.066406,131 254.988281,131 C323.914062,131 379.988281,187.074219 379.988281,256 C379.988281,324.925781 323.914062,381 254.988281,381 Z M254.988281,171 C208.121094,171 169.988281,209.132812 169.988281,256 C169.988281,302.867188 208.121094,341 254.988281,341 C301.859375,341 339.988281,302.867188 339.988281,256 C339.988281,209.132812 301.859375,171 254.988281,171 L254.988281,171 Z M393.988281,91 C377.421875,91 363.988281,104.429688 363.988281,121 C363.988281,137.570312 377.421875,151 393.988281,151 C410.558594,151 423.988281,137.570312 423.988281,121 C423.988281,104.429688 410.558594,91 393.988281,91 Z" id="Shape"></path>
        </g>
    </g>
</svg>