<svg id="Layer_1" data-name="Layer 1" xmlns="http://www.w3.org/2000/svg" viewBox="0 0 1957.28 548.4"><defs><style>.cls-1{fill:#231f20;}.cls-2{opacity:0.61;}.cls-3{fill:lime;}.cls-4{opacity:0.63;}.cls-5{fill:#f0f;}</style></defs><title>JNFT logo</title><path class="cls-1" d="M406.85.6,406,373.52c0,115.66-79.61,174.88-196,174.88S13,468.7,13,353V338.19H97.4v17.19c0,70.34,47.37,111.8,114.58,111.8s88.75-40.59,88.75-110.92L297.84.75Z"/><path class="cls-1" d="M846.54,541.53,584.61,194.6V541.53H467.94V.67H579.2L841.91,348.36V.67h115.9V541.53Z"/><path class="cls-1" d="M1791.93,104.2V541.53H1669.85V104.2H1505.28V.67h452V104.2Z"/><rect class="cls-1" x="1064" width="118" height="545"/><rect class="cls-1" x="1196" width="246" height="101"/><rect class="cls-1" x="1196" y="236" width="200" height="101"/><g class="cls-2"><path class="cls-3" d="M393.85.6,393,373.52c0,115.66-79.61,174.88-196,174.88S0,468.7,0,353V338.19H84.4v17.19c0,70.34,47.37,111.8,114.58,111.8s88.75-40.59,88.75-110.92L284.84.75Z"/><path class="cls-3" d="M844.54,541.53,582.61,194.6V541.53H465.94V.67H577.2L839.91,348.36V.67h115.9V541.53Z"/><path class="cls-3" d="M1771.93,104.2V541.53H1649.85V104.2H1485.28V.67h452V104.2Z"/><rect class="cls-3" x="1038" width="118" height="545"/><rect class="cls-3" x="1170" width="246" height="101"/><rect class="cls-3" x="1170" y="236" width="200" height="101"/></g><g class="cls-4"><path class="cls-5" d="M407.85.6,407,373.52c0,115.66-79.61,174.88-196,174.88S14,468.7,14,353V338.19H98.4v17.19c0,70.34,47.37,111.8,114.58,111.8s88.75-40.59,88.75-110.92L298.84.75Z"/><path class="cls-5" d="M858.54,541.53,596.61,194.6V541.53H479.94V.67H591.2L853.91,348.36V.67h115.9V541.53Z"/><path class="cls-5" d="M1785.93,104.2V541.53H1663.85V104.2H1499.28V.67h452V104.2Z"/><rect class="cls-5" x="1052" width="118" height="545"/><rect class="cls-5" x="1184" width="246" height="101"/><rect class="cls-5" x="1184" y="236" width="200" height="101"/></g></svg>